<?xml version="1.0" encoding="UTF-8" standalone="no"?>
<!-- Created with Inkscape (http://www.inkscape.org/) -->

<svg
   xmlns:dc="http://purl.org/dc/elements/1.1/"
   xmlns:cc="http://creativecommons.org/ns#"
   xmlns:rdf="http://www.w3.org/1999/02/22-rdf-syntax-ns#"
   xmlns:svg="http://www.w3.org/2000/svg"
   xmlns="http://www.w3.org/2000/svg"
   xmlns:sodipodi="http://sodipodi.sourceforge.net/DTD/sodipodi-0.dtd"
   xmlns:inkscape="http://www.inkscape.org/namespaces/inkscape"
   width="1000"
   height="1000"
   viewBox="0 0 1000 1000"
   id="svg4354"
   version="1.1"
   inkscape:version="0.91 r13725"
   sodipodi:docname="moleDown.svg">
  <defs
     id="defs4356" />
  <sodipodi:namedview
     id="base"
     pagecolor="#ffffff"
     bordercolor="#666666"
     borderopacity="1.0"
     inkscape:pageopacity="0.0"
     inkscape:pageshadow="2"
     inkscape:zoom="0.35"
     inkscape:cx="37.142857"
     inkscape:cy="520"
     inkscape:document-units="px"
     inkscape:current-layer="layer1"
     showgrid="false"
     units="px"
     inkscape:window-width="1366"
     inkscape:window-height="710"
     inkscape:window-x="0"
     inkscape:window-y="23"
     inkscape:window-maximized="1" />
  <metadata
     id="metadata4359">
    <rdf:RDF>
      <cc:Work
         rdf:about="">
        <dc:format>image/svg+xml</dc:format>
        <dc:type
           rdf:resource="http://purl.org/dc/dcmitype/StillImage" />
        <dc:title />
      </cc:Work>
    </rdf:RDF>
  </metadata>
  <g
     inkscape:label="Layer 1"
     inkscape:groupmode="layer"
     id="layer1"
     transform="translate(0,-52.362161)">
    <rect
       style="fill:#3366ff;fill-opacity:1"
       id="rect4362"
       width="1234.2856"
       height="1151.4286"
       x="-102.85714"
       y="-24.780697" />
    <g
       id="g3396"
       transform="translate(1.42857,58.93494)">
      <g
         transform="matrix(0.1,0,0,-0.1,0,511)"
         id="g3398">
        <path
           d="M 3744.3,3476.9 C 3377.3,3431.3 3050,3336 2726.6,3179.3 1804.1,2731 1165.3,1879.9 978.8,848.3 951,695.6 945.1,443.6 939.1,-881.5 l -7.9,-1553.3 -416.6,0 -414.6,0 0,-158.7 0,-158.7 482.1,-4 c 263.9,-2 642.8,-2 843.1,2 l 361.1,7.9 0,-192.4 c 0,-192.4 15.9,-257.9 77.4,-303.5 23.8,-17.8 273.8,-23.8 1017.7,-25.8 l 985.9,0 55.6,47.6 c 53.6,45.6 55.5,55.5 61.5,257.9 l 7.9,210.3 1007.7,0 1007.8,0 7.9,-210.3 c 5.9,-202.4 7.9,-212.3 61.5,-257.9 l 55.5,-47.6 986,0 c 743.9,2 993.9,7.9 1017.7,25.8 61.5,45.6 77.4,111.1 77.4,303.5 l 0,192.4 363,-7.9 c 198.4,-4 577.3,-4 843.1,-2 l 480.1,4 0,158.7 0,158.7 -414.6,0 -416.6,0 -7.9,1553.3 c -7.9,1682.3 -7.9,1690.2 -123,2087 -301.6,1039.4 -1124.9,1866.7 -2154.5,2164.2 -388.8,111.1 -390.8,111.1 -1694.2,117 -664.5,4.1 -1271.5,-1.9 -1344.9,-9.8 z M 6321.2,3137.6 C 7501.6,2973 8404.2,2129.9 8674,941.6 c 41.7,-188.5 43.6,-232.1 49.6,-1785.4 l 7.9,-1591 -265.8,0 -267.8,0 -51.6,105.1 c -65.5,134.9 -210.3,277.7 -349.1,347.2 l -109.1,53.6 -565.4,0 -565.4,0 -132.9,-65.5 c -152.8,-75.4 -289.6,-214.2 -345.2,-351.1 l -37.7,-89.3 -1041.5,0 -1041.5,0 -37.7,89.3 c -55.6,136.9 -192.4,275.7 -345.2,351.1 l -132.9,65.5 -565.4,0 -565.4,0 -109.1,-53.6 c -138.9,-69.4 -283.7,-212.3 -349.2,-347.2 l -51.6,-105.1 -267.8,0 -265.8,0 7.9,1591 c 6,1555.3 7.9,1596.9 49.6,1785.4 263.9,1160.5 1107,1973.9 2255.6,2180.2 174.6,29.8 339.2,33.7 1392.6,35.7 755.9,2 1249.9,-6 1347.1,-19.9 z m -2817,-5445.5 c 121,-89.3 136.9,-130.9 144.8,-386.8 l 6,-236.1 -180.5,0 -180.5,0 0,248 0,248 -158.7,0 -158.7,0 0,-248 0,-248 -89.3,0 -89.3,0 0,248 0,248 -168.6,0 -168.6,0 0,-248 0,-248 -168.6,0 -168.6,0 0,218.2 c 0,259.9 33.7,351.1 154.7,416.6 69.4,35.7 107.1,37.7 622.9,33.7 519.7,-3.9 551.4,-5.9 603,-45.6 z m 4213.6,11.9 c 125,-63.5 158.7,-152.8 158.7,-416.6 l 0,-218.2 -168.6,0 -168.6,0 0,248 0,248 -168.6,0 -168.7,0 0,-248 0,-248 -89.3,0 -89.3,0 0,248 0,248 -158.7,0 -158.7,0 0,-248 0,-248 -178.5,0 -178.5,0 0,194.4 c 0,220.2 19.8,307.5 83.3,376.9 89.3,95.2 129,101.2 686.4,103.2 484.1,0 527.7,-2 599.1,-39.7 z"
           id="path3400"
           inkscape:connector-curvature="0" />
        <path
           d="M 3462.5,596.4 C 3291.9,564.7 3083.6,451.6 2948.7,316.7 2746.4,110.4 2639.2,-133.6 2639.2,-403.4 l 0,-140.8 71.4,-11.9 c 41.7,-7.9 111.1,-7.9 156.7,0 l 83.3,9.9 11.9,152.7 c 15.9,196.4 39.7,275.8 119,390.8 134.9,202.3 341.2,297.6 605.1,281.7 160.7,-9.9 331.3,-69.4 390.8,-134.9 29.8,-33.7 29.8,-37.7 -9.9,-49.6 -59.4,-17.9 -174.5,-125 -210.2,-190.5 -103.1,-202.3 77.4,-470.1 305.5,-450.3 51.6,5.9 109.1,15.9 128.9,23.8 23.8,11.9 33.7,7.9 33.7,-17.8 0,-29.8 11.9,-33.7 75.4,-21.8 39.7,6 115.1,11.9 168.6,11.9 l 93.2,0 0,105.1 c -2,488 -345.2,924.4 -815.3,1035.5 -140.7,31.8 -237.9,33.8 -384.8,6 z"
           id="path3402"
           inkscape:connector-curvature="0" />
        <path
           d="M 6483.9,588.4 C 6011.7,475.4 5676.5,37 5674.5,-464.9 l 0,-85.3 95.2,0 c 51.6,0 125,-5.9 164.7,-11.9 l 71.4,-11.9 9.9,186.5 c 11.9,218.2 53.6,327.3 174.6,460.2 220.2,238.1 619,281.7 900.7,97.2 L 7168.4,118.3 7093,82.6 C 6991.7,33 6948.1,-8.7 6900.5,-101.9 c -71.4,-138.9 -6,-315.4 150.8,-410.6 69.4,-41.7 210.3,-49.6 273.8,-15.9 25.8,13.9 45.6,13.9 53.6,4 17.8,-27.8 158.7,-45.6 246,-31.7 l 73.4,11.9 0,140.8 c 0,77.4 -9.9,180.5 -21.8,230.1 -81.3,357.1 -420.6,686.4 -785.6,763.8 -164.8,35.6 -258,35.6 -406.8,-2.1 z"
           id="path3404"
           inkscape:connector-curvature="0" />
      </g>
    </g>
  </g>
</svg>
