<?xml version="1.0" encoding="utf-8"?>
<!-- Svg Vector Icons : http://www.onlinewebfonts.com/icon -->
<!DOCTYPE svg PUBLIC "-//W3C//DTD SVG 1.1//EN" "http://www.w3.org/Graphics/SVG/1.1/DTD/svg11.dtd">
<svg version="1.1" xmlns="http://www.w3.org/2000/svg" xmlns:xlink="http://www.w3.org/1999/xlink" x="0px" y="0px" viewBox="0 0 1000 1000" enable-background="new 0 0 1000 1000" xml:space="preserve">
<metadata> Svg Vector Icons : http://www.onlinewebfonts.com/icon </metadata>
<g><g transform="translate(0.000000,511.000000) scale(0.100000,-0.100000)"><path d="M3744.3,3476.9c-367-45.6-694.3-140.9-1017.7-297.6C1804.1,2731,1165.3,1879.9,978.8,848.3C951,695.6,945.1,443.6,939.1-881.5l-7.9-1553.3H514.6H100v-158.7v-158.7l482.1-4c263.9-2,642.8-2,843.1,2l361.1,7.9v-192.4c0-192.4,15.9-257.9,77.4-303.5c23.8-17.8,273.8-23.8,1017.7-25.8h985.9l55.6,47.6c53.6,45.6,55.5,55.5,61.5,257.9l7.9,210.3H5000h1007.8l7.9-210.3c5.9-202.4,7.9-212.3,61.5-257.9l55.5-47.6h986c743.9,2,993.9,7.9,1017.7,25.8c61.5,45.6,77.4,111.1,77.4,303.5v192.4l363-7.9c198.4-4,577.3-4,843.1-2l480.1,4v158.7v158.7h-414.6h-416.6l-7.9,1553.3c-7.9,1682.3-7.9,1690.2-123,2087C8636.3,2244.9,7813,3072.2,6783.4,3369.7c-388.8,111.1-390.8,111.1-1694.2,117C4424.7,3490.8,3817.7,3484.8,3744.3,3476.9z M6321.2,3137.6C7501.6,2973,8404.2,2129.9,8674,941.6c41.7-188.5,43.6-232.1,49.6-1785.4l7.9-1591h-265.8h-267.8l-51.6,105.1c-65.5,134.9-210.3,277.7-349.1,347.2l-109.1,53.6h-565.4h-565.4l-132.9-65.5c-152.8-75.4-289.6-214.2-345.2-351.1l-37.7-89.3H5000H3958.5l-37.7,89.3c-55.6,136.9-192.4,275.7-345.2,351.1l-132.9,65.5h-565.4h-565.4l-109.1-53.6c-138.9-69.4-283.7-212.3-349.2-347.2l-51.6-105.1h-267.8h-265.8l7.9,1591c6,1555.3,7.9,1596.9,49.6,1785.4c263.9,1160.5,1107,1973.9,2255.6,2180.2c174.6,29.8,339.2,33.7,1392.6,35.7C5730,3159.5,6224,3151.5,6321.2,3137.6z M3504.2-2307.9c121-89.3,136.9-130.9,144.8-386.8l6-236.1h-180.5h-180.5v248v248h-158.7h-158.7v-248v-248h-89.3H2798v248v248h-168.6h-168.6v-248v-248h-168.6h-168.6v218.2c0,259.9,33.7,351.1,154.7,416.6c69.4,35.7,107.1,37.7,622.9,33.7C3420.9-2266.2,3452.6-2268.2,3504.2-2307.9z M7717.8-2296c125-63.5,158.7-152.8,158.7-416.6v-218.2h-168.6h-168.6v248v248h-168.6H7202v-248v-248h-89.3h-89.3v248v248h-158.7h-158.7v-248v-248h-178.5H6349v194.4c0,220.2,19.8,307.5,83.3,376.9c89.3,95.2,129,101.2,686.4,103.2C7602.8-2256.3,7646.4-2258.3,7717.8-2296z"/><path d="M3462.5,596.4c-170.6-31.7-378.9-144.8-513.8-279.7c-202.3-206.3-309.5-450.3-309.5-720.1v-140.8l71.4-11.9c41.7-7.9,111.1-7.9,156.7,0l83.3,9.9l11.9,152.7c15.9,196.4,39.7,275.8,119,390.8c134.9,202.3,341.2,297.6,605.1,281.7c160.7-9.9,331.3-69.4,390.8-134.9c29.8-33.7,29.8-37.7-9.9-49.6C4008.1,76.6,3893-30.5,3857.3-96c-103.1-202.3,77.4-470.1,305.5-450.3c51.6,5.9,109.1,15.9,128.9,23.8c23.8,11.9,33.7,7.9,33.7-17.8c0-29.8,11.9-33.7,75.4-21.8c39.7,6,115.1,11.9,168.6,11.9h93.2v105.1c-2,488-345.2,924.4-815.3,1035.5C3706.6,622.2,3609.4,624.2,3462.5,596.4z"/><path d="M6483.9,588.4C6011.7,475.4,5676.5,37,5674.5-464.9v-85.3h95.2c51.6,0,125-5.9,164.7-11.9l71.4-11.9l9.9,186.5c11.9,218.2,53.6,327.3,174.6,460.2c220.2,238.1,619,281.7,900.7,97.2l77.4-51.6l-75.4-35.7C6991.7,33,6948.1-8.7,6900.5-101.9c-71.4-138.9-6-315.4,150.8-410.6c69.4-41.7,210.3-49.6,273.8-15.9c25.8,13.9,45.6,13.9,53.6,4c17.8-27.8,158.7-45.6,246-31.7l73.4,11.9v140.8c0,77.4-9.9,180.5-21.8,230.1c-81.3,357.1-420.6,686.4-785.6,763.8C6725.9,626.1,6632.7,626.1,6483.9,588.4z"/></g></g>
</svg>