<?xml version="1.0" encoding="UTF-8" standalone="no"?>
<!-- Created with Inkscape (http://www.inkscape.org/) -->

<svg
   xmlns:dc="http://purl.org/dc/elements/1.1/"
   xmlns:cc="http://creativecommons.org/ns#"
   xmlns:rdf="http://www.w3.org/1999/02/22-rdf-syntax-ns#"
   xmlns:svg="http://www.w3.org/2000/svg"
   xmlns="http://www.w3.org/2000/svg"
   xmlns:sodipodi="http://sodipodi.sourceforge.net/DTD/sodipodi-0.dtd"
   xmlns:inkscape="http://www.inkscape.org/namespaces/inkscape"
   width="1000"
   height="1000"
   viewBox="0 0 1000 1000"
   id="svg3426"
   version="1.1"
   inkscape:version="0.91 r13725"
   sodipodi:docname="moleUp.svg">
  <defs
     id="defs3428" />
  <sodipodi:namedview
     id="base"
     pagecolor="#ffffff"
     bordercolor="#666666"
     borderopacity="1.0"
     inkscape:pageopacity="0.0"
     inkscape:pageshadow="2"
     inkscape:zoom="0.35"
     inkscape:cx="375"
     inkscape:cy="520"
     inkscape:document-units="px"
     inkscape:current-layer="layer1"
     showgrid="false"
     units="px"
     inkscape:window-width="1366"
     inkscape:window-height="710"
     inkscape:window-x="0"
     inkscape:window-y="23"
     inkscape:window-maximized="1" />
  <metadata
     id="metadata3431">
    <rdf:RDF>
      <cc:Work
         rdf:about="">
        <dc:format>image/svg+xml</dc:format>
        <dc:type
           rdf:resource="http://purl.org/dc/dcmitype/StillImage" />
        <dc:title />
      </cc:Work>
    </rdf:RDF>
  </metadata>
  <g
     inkscape:label="Layer 1"
     inkscape:groupmode="layer"
     id="layer1"
     transform="translate(0,-52.362161)">
    <rect
       style="fill:#3366ff"
       id="rect3462"
       width="1094.2858"
       height="1068.5714"
       x="-34.285713"
       y="29.505016" />
    <path
       d="m 374.28714,218.81637 c -36.7,4.56 -69.43,14.09 -101.77,29.76 -92.25,44.83 -156.13,129.94 -174.779997,233.1 -2.78,15.27 -3.37,40.47 -3.97,172.98 l -0.79,155.33 -41.66,0 -41.46,0 0,15.87 0,15.87 48.21,0.4 c 26.39,0.2 64.279997,0.2 84.309997,-0.2 l 36.11,-0.79 0,19.24 c 0,19.24 1.59,25.79 7.74,30.35 2.38,1.78 27.38,2.38 101.77,2.58 l 98.59,0 5.56,-4.76 c 5.36,-4.56 5.55,-5.55 6.15,-25.79 l 0.79,-21.03 100.77,0 100.78,0 0.79,21.03 c 0.59,20.24 0.79,21.23 6.15,25.79 l 5.55,4.76 98.6,0 c 74.39,-0.2 99.39,-0.79 101.77,-2.58 6.15,-4.56 7.74,-11.11 7.74,-30.35 l 0,-19.24 36.3,0.79 c 19.84,0.4 57.73,0.4 84.31,0.2 l 48.01,-0.4 0,-15.87 0,-15.87 -41.46,0 -41.66,0 -0.79,-155.33 c -0.79,-168.23 -0.79,-169.02 -12.3,-208.7 -30.16,-103.94 -112.49,-186.67 -215.45,-216.42 -38.88,-11.11 -39.08,-11.11 -169.42,-11.7 -66.45,-0.41 -127.15,0.19 -134.49,0.98 z m 257.69,33.93 c 118.04,16.46 208.3,100.77 235.28,219.6 4.17,18.85 4.36,23.21 4.96,178.54 l 0.79,159.1 -26.58,0 -26.78,0 -5.16,-10.51 c -6.55,-13.49 -21.03,-27.77 -34.91,-34.72 l -10.91,-5.36 -56.54,0 -56.54,0 -13.29,6.55 c -15.28,7.54 -28.96,21.42 -34.52,35.11 l -3.77,8.93 -104.15,0 -104.15,0 -3.77,-8.93 c -5.56,-13.69 -19.24,-27.57 -34.52,-35.11 l -13.29,-6.55 -56.54,0 -56.54,0 -10.91,5.36 c -13.89,6.94 -28.37,21.23 -34.92,34.72 l -5.16,10.51 -26.78,0 -26.58,0 0.79,-159.1 c 0.6,-155.53 0.79,-159.69 4.96,-178.54 26.39,-116.05 110.7,-197.39 225.56,-218.02 17.46,-2.98 33.92,-3.37 139.26,-3.57 75.59,-0.2 124.99,0.6 134.71,1.99 z m -281.7,544.55 c 12.1,8.93 13.69,13.09 14.48,38.68 l 0.6,23.61 -18.05,0 -18.05,0 0,-24.8 0,-24.8 -15.87,0 -15.87,0 0,24.8 0,24.8 -8.93,0 -8.93,0 0,-24.8 0,-24.8 -16.86,0 -16.86,0 0,24.8 0,24.8 -16.86,0 -16.86,0 0,-21.82 c 0,-25.99 3.37,-35.11 15.47,-41.66 6.94,-3.57 10.71,-3.77 62.29,-3.37 51.97,0.39 55.14,0.59 60.3,4.56 z m 421.36,-1.19 c 12.5,6.35 15.87,15.28 15.87,41.66 l 0,21.82 -16.86,0 -16.86,0 0,-24.8 0,-24.8 -16.86,0 -16.87,0 0,24.8 0,24.8 -8.93,0 -8.93,0 0,-24.8 0,-24.8 -15.87,0 -15.87,0 0,24.8 0,24.8 -17.85,0 -17.85,0 0,-19.44 c 0,-22.02 1.98,-30.75 8.33,-37.69 8.93,-9.52 12.9,-10.12 68.64,-10.32 48.41,0 52.77,0.2 59.91,3.97 z"
       id="path3400"
       inkscape:connector-curvature="0"
       style="fill:#aa4400" />
    <path
       d="m 346.10714,506.86637 c -17.06,3.17 -37.89,14.48 -51.38,27.97 -20.23,20.63 -30.95,45.03 -30.95,72.01 l 0,14.08 7.14,1.19 c 4.17,0.79 11.11,0.79 15.67,0 l 8.33,-0.99 1.19,-15.27 c 1.59,-19.64 3.97,-27.58 11.9,-39.08 13.49,-20.23 34.12,-29.76 60.51,-28.17 16.07,0.99 33.13,6.94 39.08,13.49 2.98,3.37 2.98,3.77 -0.99,4.96 -5.94,1.79 -17.45,12.5 -21.02,19.05 -10.31,20.23 7.74,47.01 30.55,45.03 5.16,-0.59 10.91,-1.59 12.89,-2.38 2.38,-1.19 3.37,-0.79 3.37,1.78 0,2.98 1.19,3.37 7.54,2.18 3.97,-0.6 11.51,-1.19 16.86,-1.19 l 9.32,0 0,-10.51 c -0.2,-48.8 -34.52,-92.44 -81.53,-103.55 -14.07,-3.18 -23.79,-3.38 -38.48,-0.6 z"
       id="path3402"
       inkscape:connector-curvature="0"
       style="fill:#ff0000;fill-opacity:1" />
    <path
       d="m 648.24714,507.66637 c -47.22,11.3 -80.74,55.14 -80.94,105.33 l 0,8.53 9.52,0 c 5.16,0 12.5,0.59 16.47,1.19 l 7.14,1.19 0.99,-18.65 c 1.19,-21.82 5.36,-32.73 17.46,-46.02 22.02,-23.81 61.9,-28.17 90.07,-9.72 l 7.74,5.16 -7.54,3.57 c -10.13,4.96 -14.49,9.13 -19.25,18.45 -7.14,13.89 -0.6,31.54 15.08,41.06 6.94,4.17 21.03,4.96 27.38,1.59 2.58,-1.39 4.56,-1.39 5.36,-0.4 1.78,2.78 15.87,4.56 24.6,3.17 l 7.34,-1.19 0,-14.08 c 0,-7.74 -0.99,-18.05 -2.18,-23.01 -8.13,-35.71 -42.06,-68.64 -78.56,-76.38 -16.48,-3.56 -25.8,-3.56 -40.68,0.21 z"
       id="path3404"
       inkscape:connector-curvature="0"
       style="fill:#ff0000;fill-opacity:1" />
  </g>
</svg>
